#N canvas 62 31 1086 832 10;
#X obj 144 474 vline~;
#X msg 213 407 0 \$1 0;
#X obj 238 351 float;
#X text 73 383 ADS;
#X text 230 385 R;
#X obj 159 524 outlet~;
#X msg 8 399 0 1 0 \, 1 \$1 1 \, \$3 \$2 \$1;
#X obj -14 337 pack f f f;
#X msg 141 437 0;
#X obj 67 190 unpack f f f f f;
#X obj 74 40 inlet;
#X obj 235 281 delay;
#X msg 179 246 bang;
#X text 107 171 a d s r len;
#X connect 0 0 5 0;
#X connect 1 0 0 0;
#X connect 2 0 1 0;
#X connect 6 0 0 0;
#X connect 7 0 6 0;
#X connect 8 0 0 0;
#X connect 9 0 7 0;
#X connect 9 1 7 1;
#X connect 9 2 7 2;
#X connect 9 3 2 1;
#X connect 9 4 11 1;
#X connect 9 4 12 0;
#X connect 10 0 9 0;
#X connect 11 0 2 0;
#X connect 12 0 11 0;
#X coords 0 832 1 831 65 20 0;
