#N canvas 0 0 870 729 10;
#X obj 111 118 vsl 10 100 10 9999 1 0 empty empty empty 0 0 0 18 -262144
-1 -1 0 1;
#X obj 127 119 vsl 10 100 10 9999 1 0 empty empty empty 0 0 0 18 -262144
-1 -1 0 1;
#X obj 143 119 vsl 10 100 0 1 0 0 empty empty empty 0 0 0 18 -262144
-1 -1 0 1;
#X obj 159 118 vsl 10 100 10 9999 1 0 empty empty empty 0 0 0 18 -262144
-1 -1 0 1;
#X obj -214 -133 inlet;
#X msg -214 -93 bang;
#X obj -214 -58 alternate;
#X obj -289 372 pack f f f;
#X obj -115 494 vline~;
#X obj -313 327 float;
#X msg -59 419 0 \$1 0;
#X obj -47 370 float;
#X text -196 400 ADS;
#X text -39 402 R;
#X obj -110 541 outlet~;
#X msg -261 416 0 1 0 \, 1 \$1 1 \, \$3 \$2 \$1;
#X text -143 296;
#X text 52 297;
#X text -130 229;
#X text -79 232;
#X text 109 221 A D S R;
#X obj 302 -26 cnv 15 100 60 empty empty empty 20 12 0 14 -233017 -66577
0;
#X connect 0 0 9 1;
#X connect 1 0 7 1;
#X connect 2 0 7 2;
#X connect 3 0 11 1;
#X connect 4 0 5 0;
#X connect 5 0 6 0;
#X connect 6 0 0 0;
#X connect 6 0 1 0;
#X connect 6 0 2 0;
#X connect 6 0 3 0;
#X connect 6 0 9 0;
#X connect 6 1 11 0;
#X connect 7 0 15 0;
#X connect 8 0 14 0;
#X connect 9 0 7 0;
#X connect 10 0 8 0;
#X connect 11 0 10 0;
#X connect 15 0 8 0;
#X coords 0 -1 1 1 80 140 1 100 100;
