#N canvas 993 119 552 564 10;
#X msg 150 132 5;
#X msg 256 28 bang;
#X obj 47 91 noise~;
#X obj 74 159 *~ 0.2;
#X obj 108 225 *~;
#X obj 85 362 dac~;
#X obj 258 -5 inlet;
#X msg 229 133 0.1;
#X obj 295 81 osc~ 1;
#X obj 300 108 unsig~ 10;
#X obj 304 133 * 10;
#X obj 307 164 +;
#X msg 194 132 10;
#X msg 271 133 30;
#X msg 443 122 20;
#X obj 248 202 pack f f f f f;
#X obj 317 376 adsr;
#X connect 0 0 15 0;
#X connect 1 0 0 0;
#X connect 1 0 12 0;
#X connect 1 0 7 0;
#X connect 1 0 13 0;
#X connect 1 0 14 0;
#X connect 2 0 3 0;
#X connect 3 0 4 0;
#X connect 4 0 5 1;
#X connect 4 0 5 0;
#X connect 6 0 1 0;
#X connect 7 0 15 2;
#X connect 8 0 9 0;
#X connect 9 0 10 0;
#X connect 10 0 11 1;
#X connect 11 0 15 3;
#X connect 12 0 15 1;
#X connect 13 0 11 0;
#X connect 14 0 15 4;
#X connect 15 0 16 0;
#X connect 16 0 4 1;
