#N canvas 220 101 899 642 10;
#X obj 316 103 inlet;
#X floatatom 316 211 5 0 0 0 - - -;
#X obj 524 113 hsl 128 15 2 32 0 0 empty empty empty -2 -8 0 10 -262144
-1 -1 2900 1;
#X obj 524 133 hsl 128 15 0 1 0 0 empty empty empty -2 -8 0 10 -262144
-1 -1 4700 1;
#X obj 670 135 nbx 2 14 -1e+037 1e+037 0 0 empty empty empty 0 -8 0
10 -262144 -1 -1 3 256;
#X obj 669 110 nbx 2 14 -1e+037 1e+037 0 0 empty empty empty 0 -8 0
10 -262144 -1 -1 8.85039 256;
#X obj 350 355 %;
#X obj 569 232 *;
#X obj 670 252 int;
#X msg 445 120 bang;
#X text 519 91 Total Steps;
#X text 520 152 Active Steps;
#X msg 434 68 bang;
#X floatatom 383 417 5 0 0 0 - - -;
#X floatatom 405 530 5 0 0 0 - - -;
#X obj 123 591 noise~;
#X obj 217 691 dac~;
#X obj 168 666 *~;
#X obj 134 632 *~ 0.2;
#X obj 398 561 spigot;
#X obj 280 647 adsr;
#X msg 277 567 bang;
#X msg 349 616 0.5;
#X msg 480 657 bang;
#X obj 480 621 delay 10;
#X msg 295 611 10;
#X msg 321 612 100;
#X msg 400 622 100;
#X floatatom 291 344 5 0 0 0 - - -;
#X obj 332 293 *;
#X obj 407 495 <;
#X obj 180 475 outlet;
#X msg 279 497 bang;
#X connect 0 0 1 0;
#X connect 1 0 12 0;
#X connect 1 0 29 0;
#X connect 2 0 5 0;
#X connect 2 0 9 0;
#X connect 3 0 7 0;
#X connect 4 0 29 1;
#X connect 5 0 7 1;
#X connect 5 0 6 1;
#X connect 6 0 13 0;
#X connect 7 0 8 0;
#X connect 8 0 4 0;
#X connect 8 0 30 1;
#X connect 9 0 3 0;
#X connect 12 0 2 0;
#X connect 12 0 9 0;
#X connect 13 0 30 0;
#X connect 14 0 19 1;
#X connect 14 0 19 0;
#X connect 15 0 18 0;
#X connect 17 0 16 0;
#X connect 17 0 16 1;
#X connect 18 0 17 0;
#X connect 19 0 32 0;
#X connect 20 0 17 1;
#X connect 21 0 20 0;
#X connect 21 0 25 0;
#X connect 21 0 26 0;
#X connect 21 0 22 0;
#X connect 21 0 27 0;
#X connect 21 0 24 0;
#X connect 23 0 20 0;
#X connect 24 0 23 0;
#X connect 29 0 6 0;
#X connect 29 0 28 0;
#X connect 30 0 14 0;
#X connect 32 0 31 0;
