#N canvas 0 0 630 466 10;
#X obj 270 289 phasor~;
#X obj 266 392 dac~;
#X obj 104 261 unsig~ 1;
#X floatatom 127 346 5 0 0 0 - - -;
#X obj 265 329 *~ 0.2;
#X obj 399 165 osc~;
#X obj 352 248 +~ 300;
#X obj 292 224 *~ 30;
#X floatatom 416 206 5 0 0 0 - - -;
#X floatatom 480 317 5 0 0 0 - - -;
#X text 464 199 fm amount;
#X text 482 349 pitch in;
#X msg 350 128 3051;
#X obj 366 383 line;
#X msg 364 335 3051 10000;
#X msg 452 383 1 10000;
#X connect 0 0 4 0;
#X connect 2 0 3 0;
#X connect 4 0 1 0;
#X connect 4 0 1 1;
#X connect 5 0 7 0;
#X connect 6 0 0 0;
#X connect 6 0 2 0;
#X connect 7 0 6 0;
#X connect 8 0 7 1;
#X connect 12 0 5 0;
#X connect 13 0 6 1;
#X connect 14 0 13 0;
#X connect 15 0 13 0;
