#N canvas 0 0 1284 818 10;
#X obj 914 45 cnv 15 100 60 empty empty empty 20 12 0 14 -233017 -66577
0;
#X obj 154 144 tgl 15 0 empty empty empty 17 7 0 10 -262144 -1 -1 0
1;
#X obj 140 155 tgl 15 0 empty empty empty 17 7 0 10 -33289 -262144
-1 0 1;
#X obj 153 168 tgl 15 0 empty empty empty 17 7 0 10 -262144 -1 -1 0
1;
#X obj 142 179 tgl 15 0 empty empty empty 17 7 0 10 -33289 -262144
-1 0 1;
#X obj 153 191 tgl 15 0 empty empty empty 17 7 0 10 -262144 -1 -1 0
1;
#X obj 143 202 tgl 15 0 empty empty empty 17 7 0 10 -33289 -262144
-1 0 1;
#X obj 155 216 tgl 15 0 empty empty empty 17 7 0 10 -262144 -1 -1 0
1;
#X obj 155 237 tgl 15 0 empty empty empty 17 7 0 10 -262144 -1 -1 0
1;
#X obj 142 248 tgl 15 0 empty empty empty 17 7 0 10 -33289 -262144
-1 0 1;
#X obj 156 262 tgl 15 0 empty empty empty 17 7 0 10 -262144 -1 -1 0
1;
#X obj 143 272 tgl 15 0 empty empty empty 17 7 0 10 -33289 -262144
-1 0 1;
#X obj 158 287 tgl 15 0 empty empty empty 17 7 0 10 -262144 -1 -1 1
1;
#X msg 609 3 12;
#X msg 609 31 11;
#X msg 606 69 10;
#X msg 610 103 9;
#X msg 612 140 8;
#X msg 609 172 7;
#X msg 609 204 6;
#X msg 607 241 5;
#X msg 604 278 4;
#X msg 603 310 3;
#X msg 601 349 2;
#X msg 603 387 1;
#X obj 768 -479 until;
#X msg 789 -528 12;
#X obj 782 -440 f;
#X obj 815 -440 + 1;
#X obj -430 -91 route 1 2 3 4 5 6 7 8 9 10 11 12;
#X obj 775 -398 + 1;
#X obj 824 -345 select;
#X msg -201 -52 0;
#X msg -225 -51 0;
#X msg -249 -51 0;
#X msg -274 -52 0;
#X msg -298 -53 0;
#X msg -323 -54 0;
#X msg -349 -52 0;
#X msg -376 -50 0;
#X msg -399 -50 0;
#X msg -427 -49 0;
#X msg -451 -49 0;
#X msg -478 -49 0;
#X msg 827 -481 0;
#X obj 530 2 select 1;
#X obj 532 30 select 1;
#X obj 531 65 select 1;
#X obj 533 93 select 1;
#X obj 531 141 select 1;
#X obj 533 169 select 1;
#X obj 536 207 select 1;
#X obj 538 235 select 1;
#X obj 527 280 select 1;
#X obj 529 308 select 1;
#X obj 532 346 select 1;
#X obj 534 374 select 1;
#X obj -230 324 loadbang;
#X msg -29 291 1;
#X msg 1095 -157 bang;
#X floatatom 741 -355 5 0 0 0 - - -;
#X obj 54 387 nbx 2 14 -4 4 0 0 empty empty empty 0 -8 0 10 -262144
-1 -1 0 256;
#X obj 544 440 expr ($f1 + 5) * 12 - 1;
#X obj 943 431 outlet;
#X obj 1047 351 +;
#X obj 1101 262 float;
#X obj 349 434 float;
#X obj 1028 150 bang;
#X obj 1030 105 inlet;
#X obj 104 157 vradio 15 1 0 9 empty empty empty 0 -8 0 10 -262144
-1 -1 4;
#X text 121 155 +4;
#X text 120 170 +3;
#X text 121 184 +2;
#X text 120 200 +1;
#X text 121 215 0;
#X text 119 228 -1;
#X text 120 243 -2;
#X text 119 260 -3;
#X text 118 275 -4;
#X obj -5 355 * -1;
#X obj -2 378 + 4;
#X msg 10 9 4;
#X connect 1 0 45 0;
#X connect 2 0 46 0;
#X connect 3 0 47 0;
#X connect 4 0 48 0;
#X connect 5 0 49 0;
#X connect 6 0 50 0;
#X connect 7 0 51 0;
#X connect 8 0 52 0;
#X connect 9 0 53 0;
#X connect 10 0 54 0;
#X connect 11 0 55 0;
#X connect 12 0 56 0;
#X connect 13 0 31 1;
#X connect 13 0 59 0;
#X connect 13 0 65 1;
#X connect 14 0 31 1;
#X connect 14 0 59 0;
#X connect 14 0 65 1;
#X connect 15 0 31 1;
#X connect 15 0 59 0;
#X connect 15 0 65 1;
#X connect 16 0 31 1;
#X connect 16 0 59 0;
#X connect 16 0 65 1;
#X connect 17 0 31 1;
#X connect 17 0 59 0;
#X connect 17 0 65 1;
#X connect 18 0 31 1;
#X connect 18 0 59 0;
#X connect 18 0 65 1;
#X connect 19 0 31 1;
#X connect 19 0 59 0;
#X connect 19 0 65 1;
#X connect 20 0 31 1;
#X connect 20 0 59 0;
#X connect 20 0 65 1;
#X connect 21 0 31 1;
#X connect 21 0 59 0;
#X connect 21 0 65 1;
#X connect 22 0 31 1;
#X connect 22 0 59 0;
#X connect 22 0 65 1;
#X connect 23 0 31 1;
#X connect 23 0 59 0;
#X connect 23 0 65 1;
#X connect 24 0 31 1;
#X connect 24 0 59 0;
#X connect 24 0 65 1;
#X connect 25 0 27 0;
#X connect 26 0 25 0;
#X connect 26 0 44 0;
#X connect 27 0 28 0;
#X connect 27 0 30 0;
#X connect 28 0 27 1;
#X connect 29 0 43 0;
#X connect 29 1 42 0;
#X connect 29 2 41 0;
#X connect 29 3 40 0;
#X connect 29 4 39 0;
#X connect 29 5 38 0;
#X connect 29 6 37 0;
#X connect 29 7 36 0;
#X connect 29 8 35 0;
#X connect 29 9 34 0;
#X connect 29 10 33 0;
#X connect 29 11 32 0;
#X connect 30 0 31 0;
#X connect 30 0 60 0;
#X connect 31 1 29 0;
#X connect 32 0 1 0;
#X connect 33 0 2 0;
#X connect 34 0 3 0;
#X connect 35 0 4 0;
#X connect 36 0 5 0;
#X connect 37 0 6 0;
#X connect 38 0 7 0;
#X connect 39 0 8 0;
#X connect 40 0 9 0;
#X connect 41 0 10 0;
#X connect 42 0 11 0;
#X connect 43 0 12 0;
#X connect 44 0 27 1;
#X connect 45 0 13 0;
#X connect 46 0 14 0;
#X connect 47 0 15 0;
#X connect 48 0 16 0;
#X connect 49 0 17 0;
#X connect 50 0 18 0;
#X connect 51 0 19 0;
#X connect 52 0 20 0;
#X connect 53 0 21 0;
#X connect 54 0 22 0;
#X connect 55 0 23 0;
#X connect 56 0 24 0;
#X connect 57 0 58 0;
#X connect 57 0 81 0;
#X connect 58 0 12 0;
#X connect 59 0 26 0;
#X connect 59 0 65 0;
#X connect 59 0 66 0;
#X connect 61 0 66 1;
#X connect 61 0 59 0;
#X connect 62 0 64 1;
#X connect 64 0 63 0;
#X connect 65 0 64 0;
#X connect 66 0 62 0;
#X connect 67 0 65 0;
#X connect 67 0 66 0;
#X connect 68 0 67 0;
#X connect 69 0 79 0;
#X connect 79 0 80 0;
#X connect 80 0 61 0;
#X connect 81 0 69 0;
#X coords 0 -1 1 1 85 210 1 100 100;
