#N canvas -8 -8 1280 981 10;
#X obj 494 108 float;
#X obj 446 108 + 1;
#X floatatom 447 152 5 0 0 0 - - -;
#X msg 443 71 1;
#X msg 403 109 0;
#X obj 180 226 mod 2;
#X obj 227 224 mod 3;
#X floatatom 181 248 5 0 0 0 - - -;
#X floatatom 227 248 5 0 0 0 - - -;
#X obj 271 225 mod 4;
#X obj 313 225 mod 5;
#X obj 358 225 mod 6;
#X obj 408 224 mod 7;
#X floatatom 269 251 5 0 0 0 - - -;
#X floatatom 315 251 5 0 0 0 - - -;
#X floatatom 364 253 5 0 0 0 - - -;
#X floatatom 410 253 5 0 0 0 - - -;
#X obj 455 227 mod 8;
#X floatatom 457 254 5 0 0 0 - - -;
#X obj 93 281 moses 1;
#X floatatom 504 249 5 0 0 0 - - -;
#X floatatom 550 249 5 0 0 0 - - -;
#X floatatom 592 252 5 0 0 0 - - -;
#X floatatom 638 252 5 0 0 0 - - -;
#X floatatom 687 254 5 0 0 0 - - -;
#X floatatom 733 254 5 0 0 0 - - -;
#X floatatom 780 255 5 0 0 0 - - -;
#X obj 503 227 mod 9;
#X obj 550 225 mod 10;
#X obj 594 226 mod 11;
#X obj 636 226 mod 12;
#X obj 681 226 mod 13;
#X obj 731 225 mod 14;
#X obj 778 228 mod 15;
#X floatatom 830 259 5 0 0 0 - - -;
#X obj 828 232 mod 16;
#X obj 159 280 moses 1;
#X obj 211 284 moses 1;
#X obj 277 283 moses 1;
#X obj 329 285 moses 1;
#X obj 395 284 moses 1;
#X obj 457 284 moses 1;
#X obj 511 285 moses 1;
#X obj 980 587 osc~ 50;
#X obj 917 591 osc~ 100;
#X obj 860 590 osc~ 150;
#X obj 806 588 osc~ 200;
#X obj 746 589 osc~ 250;
#X obj 684 588 osc~ 300;
#X obj 618 586 osc~ 350;
#X obj 561 587 osc~ 400;
#X obj 498 591 osc~ 450;
#X obj 441 590 osc~ 500;
#X obj 387 588 osc~ 550;
#X obj 327 589 osc~ 600;
#X obj 265 588 osc~ 650;
#X obj 199 586 osc~ 700;
#X obj 568 289 moses 1;
#X obj 617 281 moses 1;
#X obj 676 285 moses 1;
#X obj 743 284 moses 1;
#X obj 802 286 moses 1;
#X obj 868 285 moses 1;
#X obj 931 286 moses 1;
#X obj 96 319 bng 15 250 50 0 empty empty empty 17 7 0 10 -262144 -1
-1;
#X obj 159 329 bng 15 250 50 0 empty empty empty 17 7 0 10 -262144
-1 -1;
#X obj 220 334 bng 15 250 50 0 empty empty empty 17 7 0 10 -262144
-1 -1;
#X obj 277 331 bng 15 250 50 0 empty empty empty 17 7 0 10 -262144
-1 -1;
#X obj 339 332 bng 15 250 50 0 empty empty empty 17 7 0 10 -262144
-1 -1;
#X obj 404 332 bng 15 250 50 0 empty empty empty 17 7 0 10 -262144
-1 -1;
#X obj 464 337 bng 15 250 50 0 empty empty empty 17 7 0 10 -262144
-1 -1;
#X obj 525 328 bng 15 250 50 0 empty empty empty 17 7 0 10 -262144
-1 -1;
#X obj 580 332 bng 15 250 50 0 empty empty empty 17 7 0 10 -262144
-1 -1;
#X obj 636 322 bng 15 250 50 0 empty empty empty 17 7 0 10 -262144
-1 -1;
#X obj 680 330 bng 15 250 50 0 empty empty empty 17 7 0 10 -262144
-1 -1;
#X obj 755 321 bng 15 250 50 0 empty empty empty 17 7 0 10 -262144
-1 -1;
#X obj 809 318 bng 15 250 50 0 empty empty empty 17 7 0 10 -262144
-1 -1;
#X obj 873 319 bng 15 250 50 0 empty empty empty 17 7 0 10 -262144
-1 -1;
#X obj 950 316 bng 15 250 50 0 empty empty empty 17 7 0 10 -262144
-1 -1;
#X msg 394 -32 1;
#X msg 451 -35 0;
#X obj 152 680 *~;
#X obj 228 683 *~;
#X obj 294 679 *~;
#X obj 364 684 *~;
#X obj 407 678 *~;
#X obj 474 676 *~;
#X obj 532 672 *~;
#X obj 600 673 *~;
#X obj 653 673 *~;
#X obj 709 679 *~;
#X obj 769 680 *~;
#X obj 840 685 *~;
#X obj 892 684 *~;
#X obj 952 690 *~;
#X obj -47 681 *~;
#X obj 29 684 *~;
#X obj 95 680 *~;
#X obj 132 590 osc~ 750;
#X obj 70 589 osc~ 800;
#X obj 4 587 osc~ 850;
#X obj -81 588 osc~ 900;
#X obj 502 1054 dac~;
#X obj -218 541 line~;
#X msg -540 440 1;
#X msg -484 389 bang;
#X obj -483 426 delay 3;
#X msg -470 483 0 300;
#X msg -415 441 1;
#X msg -359 390 bang;
#X obj -358 427 delay 3;
#X msg -345 484 0 300;
#X msg -296 441 1;
#X msg -240 390 bang;
#X obj -239 427 delay 3;
#X msg -226 484 0 300;
#X msg -171 442 1;
#X msg -115 391 bang;
#X obj -114 428 delay 3;
#X msg -101 485 0 300;
#X msg -35 432 1;
#X msg 21 381 bang;
#X obj 22 418 delay 3;
#X msg 35 475 0 300;
#X msg 90 433 1;
#X msg 146 382 bang;
#X obj 147 419 delay 3;
#X msg 160 476 0 300;
#X msg 209 433 1;
#X msg 265 382 bang;
#X obj 266 419 delay 3;
#X msg 279 476 0 300;
#X msg 334 434 1;
#X msg 390 383 bang;
#X obj 391 420 delay 3;
#X msg 404 477 0 300;
#X msg 479 432 1;
#X msg 535 381 bang;
#X obj 536 418 delay 3;
#X msg 549 475 0 300;
#X msg 604 433 1;
#X msg 660 382 bang;
#X obj 661 419 delay 3;
#X msg 674 476 0 300;
#X msg 723 433 1;
#X msg 779 382 bang;
#X obj 780 419 delay 3;
#X msg 793 476 0 300;
#X msg 848 434 1;
#X msg 904 383 bang;
#X obj 905 420 delay 3;
#X msg 918 477 0 300;
#X msg 984 424 1;
#X msg 1040 373 bang;
#X obj 1041 410 delay 3;
#X msg 1054 467 0 300;
#X msg 1109 425 1;
#X msg 1165 374 bang;
#X obj 1166 411 delay 3;
#X msg 1179 468 0 300;
#X msg 1228 425 1;
#X msg 1284 374 bang;
#X obj 1285 411 delay 3;
#X msg 1298 468 0 300;
#X msg 1353 426 1;
#X msg 1409 375 bang;
#X obj 1410 412 delay 3;
#X msg 1423 469 0 300;
#X obj -149 537 line~;
#X obj -80 533 line~;
#X obj 8 532 line~;
#X obj 109 529 line~;
#X obj 180 538 line~;
#X obj 288 535 line~;
#X obj 395 542 line~;
#X obj 516 544 line~;
#X obj 611 541 line~;
#X obj 684 537 line~;
#X obj 748 540 line~;
#X obj 851 533 line~;
#X obj 926 539 line~;
#X obj 1030 538 line~;
#X obj 1123 547 line~;
#X obj 1221 545 line~;
#X obj 432 23 metro 500;
#X obj 501 913 fdn~ 501 752 5003 7504 105 206 307 408;
#X obj 507 808 *~ 0.01;
#X connect 0 0 1 1;
#X connect 1 0 2 0;
#X connect 2 0 0 0;
#X connect 2 0 5 0;
#X connect 2 0 6 0;
#X connect 2 0 9 0;
#X connect 2 0 10 0;
#X connect 2 0 11 0;
#X connect 2 0 12 0;
#X connect 2 0 17 0;
#X connect 2 0 27 0;
#X connect 2 0 28 0;
#X connect 2 0 29 0;
#X connect 2 0 30 0;
#X connect 2 0 31 0;
#X connect 2 0 32 0;
#X connect 2 0 33 0;
#X connect 2 0 35 0;
#X connect 3 0 1 0;
#X connect 4 0 2 0;
#X connect 5 0 7 0;
#X connect 6 0 8 0;
#X connect 7 0 19 0;
#X connect 8 0 36 0;
#X connect 9 0 13 0;
#X connect 10 0 14 0;
#X connect 11 0 15 0;
#X connect 12 0 16 0;
#X connect 13 0 37 0;
#X connect 14 0 38 0;
#X connect 15 0 39 0;
#X connect 16 0 40 0;
#X connect 17 0 18 0;
#X connect 18 0 41 0;
#X connect 19 0 64 0;
#X connect 20 0 42 0;
#X connect 21 0 57 0;
#X connect 22 0 58 0;
#X connect 23 0 59 0;
#X connect 24 0 60 0;
#X connect 25 0 61 0;
#X connect 26 0 62 0;
#X connect 27 0 20 0;
#X connect 28 0 21 0;
#X connect 29 0 22 0;
#X connect 30 0 23 0;
#X connect 31 0 24 0;
#X connect 32 0 25 0;
#X connect 33 0 26 0;
#X connect 34 0 63 0;
#X connect 35 0 34 0;
#X connect 36 0 65 0;
#X connect 37 0 66 0;
#X connect 38 0 67 0;
#X connect 39 0 68 0;
#X connect 40 0 69 0;
#X connect 41 0 70 0;
#X connect 42 0 71 0;
#X connect 43 0 94 0;
#X connect 44 0 93 0;
#X connect 45 0 92 0;
#X connect 46 0 91 0;
#X connect 47 0 90 0;
#X connect 48 0 89 0;
#X connect 49 0 88 0;
#X connect 50 0 87 0;
#X connect 51 0 86 0;
#X connect 52 0 85 0;
#X connect 54 0 84 0;
#X connect 55 0 83 0;
#X connect 56 0 82 0;
#X connect 57 0 72 0;
#X connect 58 0 73 0;
#X connect 59 0 74 0;
#X connect 60 0 75 0;
#X connect 61 0 76 0;
#X connect 62 0 77 0;
#X connect 63 0 78 0;
#X connect 64 0 104 0;
#X connect 65 0 108 0;
#X connect 66 0 116 0;
#X connect 67 0 120 0;
#X connect 68 0 124 0;
#X connect 69 0 128 0;
#X connect 70 0 132 0;
#X connect 71 0 136 0;
#X connect 72 0 140 0;
#X connect 73 0 144 0;
#X connect 74 0 148 0;
#X connect 75 0 152 0;
#X connect 76 0 156 0;
#X connect 77 0 160 0;
#X connect 78 0 164 0;
#X connect 79 0 184 0;
#X connect 80 0 184 0;
#X connect 81 0 186 0;
#X connect 82 0 186 0;
#X connect 83 0 186 0;
#X connect 84 0 186 0;
#X connect 85 0 186 0;
#X connect 86 0 186 0;
#X connect 87 0 186 0;
#X connect 88 0 186 0;
#X connect 89 0 186 0;
#X connect 91 0 186 0;
#X connect 92 0 186 0;
#X connect 93 0 186 0;
#X connect 94 0 186 0;
#X connect 95 0 186 0;
#X connect 96 0 186 0;
#X connect 97 0 186 0;
#X connect 98 0 81 0;
#X connect 99 0 97 0;
#X connect 100 0 96 0;
#X connect 101 0 95 0;
#X connect 103 0 95 1;
#X connect 104 0 103 0;
#X connect 104 0 105 0;
#X connect 105 0 106 0;
#X connect 106 0 107 0;
#X connect 107 0 103 0;
#X connect 108 0 109 0;
#X connect 108 0 168 0;
#X connect 109 0 110 0;
#X connect 110 0 111 0;
#X connect 111 0 168 0;
#X connect 112 0 113 0;
#X connect 112 0 169 0;
#X connect 113 0 114 0;
#X connect 114 0 115 0;
#X connect 115 0 169 0;
#X connect 116 0 117 0;
#X connect 116 0 170 0;
#X connect 117 0 118 0;
#X connect 118 0 119 0;
#X connect 119 0 170 0;
#X connect 120 0 121 0;
#X connect 120 0 171 0;
#X connect 121 0 122 0;
#X connect 122 0 123 0;
#X connect 123 0 171 0;
#X connect 124 0 125 0;
#X connect 124 0 172 0;
#X connect 125 0 126 0;
#X connect 126 0 127 0;
#X connect 127 0 172 0;
#X connect 128 0 129 0;
#X connect 128 0 173 0;
#X connect 129 0 130 0;
#X connect 130 0 131 0;
#X connect 131 0 173 0;
#X connect 132 0 133 0;
#X connect 132 0 174 0;
#X connect 133 0 134 0;
#X connect 134 0 135 0;
#X connect 135 0 174 0;
#X connect 136 0 137 0;
#X connect 136 0 175 0;
#X connect 137 0 138 0;
#X connect 138 0 139 0;
#X connect 139 0 175 0;
#X connect 140 0 141 0;
#X connect 140 0 176 0;
#X connect 141 0 142 0;
#X connect 142 0 143 0;
#X connect 143 0 176 0;
#X connect 144 0 145 0;
#X connect 144 0 177 0;
#X connect 145 0 146 0;
#X connect 146 0 147 0;
#X connect 147 0 177 0;
#X connect 148 0 149 0;
#X connect 148 0 178 0;
#X connect 149 0 150 0;
#X connect 150 0 151 0;
#X connect 151 0 178 0;
#X connect 152 0 153 0;
#X connect 152 0 179 0;
#X connect 153 0 154 0;
#X connect 154 0 155 0;
#X connect 155 0 179 0;
#X connect 156 0 157 0;
#X connect 156 0 180 0;
#X connect 157 0 158 0;
#X connect 158 0 159 0;
#X connect 159 0 180 0;
#X connect 160 0 161 0;
#X connect 160 0 181 0;
#X connect 161 0 162 0;
#X connect 162 0 163 0;
#X connect 163 0 181 0;
#X connect 164 0 165 0;
#X connect 164 0 182 0;
#X connect 164 0 183 0;
#X connect 165 0 166 0;
#X connect 166 0 167 0;
#X connect 167 0 182 0;
#X connect 167 0 183 0;
#X connect 168 0 96 1;
#X connect 169 0 97 1;
#X connect 170 0 81 1;
#X connect 171 0 82 1;
#X connect 172 0 83 1;
#X connect 173 0 84 1;
#X connect 174 0 85 1;
#X connect 175 0 86 1;
#X connect 176 0 87 1;
#X connect 177 0 88 1;
#X connect 178 0 89 1;
#X connect 179 0 90 1;
#X connect 180 0 91 1;
#X connect 181 0 92 1;
#X connect 182 0 93 1;
#X connect 183 0 94 1;
#X connect 184 0 3 0;
#X connect 185 0 102 0;
#X connect 185 1 102 1;
#X connect 186 0 185 0;
