#N canvas 993 119 552 564 10;
#X obj 290 269 adsr;
#X msg 294 212 5;
#X floatatom 201 370 5 0 0 0 - - -;
#X obj 203 324 env~;
#X msg 258 163 bang;
#X obj 47 91 noise~;
#X obj 74 159 *~ 0.2;
#X obj 108 225 *~;
#X obj 85 362 dac~;
#X obj 211 77 inlet;
#X msg 370 211 0.1;
#X obj 468 146 osc~ 1;
#X obj 458 221 unsig~ 10;
#X obj 438 265 * 10;
#X obj 425 317 +;
#X obj 206 217 delay 10;
#X msg 332 209 10;
#X msg 404 208 30;
#X msg 189 161 bang;
#X connect 0 0 7 1;
#X connect 0 0 3 0;
#X connect 1 0 0 1;
#X connect 3 0 2 0;
#X connect 4 0 1 0;
#X connect 4 0 16 0;
#X connect 4 0 10 0;
#X connect 4 0 17 0;
#X connect 4 0 0 0;
#X connect 4 0 15 0;
#X connect 5 0 6 0;
#X connect 6 0 7 0;
#X connect 7 0 8 1;
#X connect 7 0 8 0;
#X connect 9 0 4 0;
#X connect 10 0 0 3;
#X connect 11 0 12 0;
#X connect 12 0 13 0;
#X connect 13 0 14 1;
#X connect 14 0 0 4;
#X connect 15 0 0 0;
#X connect 16 0 0 2;
#X connect 17 0 14 0;
#X connect 18 0 0 0;
