#N canvas 607 161 776 515 10;
#X obj -650 142 tgl 15 0 empty empty empty 17 7 0 10 -262144 -1 -1
0 1;
#X obj -516 -276 metro;
#X floatatom -492 -433 10 1 160 0 - - -;
#X obj -619 142 tgl 15 0 empty empty empty 17 7 0 10 -262144 -1 -1
0 1;
#X obj -590 142 tgl 15 0 empty empty empty 17 7 0 10 -262144 -1 -1
0 1;
#X obj -563 142 tgl 15 0 empty empty empty 17 7 0 10 -262144 -1 -1
0 1;
#X obj -534 142 tgl 15 0 empty empty empty 17 7 0 10 -262144 -1 -1
0 1;
#X obj -502 142 tgl 15 0 empty empty empty 17 7 0 10 -262144 -1 -1
0 1;
#X obj -466 142 tgl 15 0 empty empty empty 17 7 0 10 -262144 -1 -1
0 1;
#X obj -432 142 tgl 15 0 empty empty empty 17 7 0 10 -262144 -1 -1
0 1;
#X obj -398 142 tgl 15 0 empty empty empty 17 7 0 10 -262144 -1 -1
0 1;
#X obj -366 142 tgl 15 0 empty empty empty 17 7 0 10 -262144 -1 -1
0 1;
#X obj -331 142 tgl 15 0 empty empty empty 17 7 0 10 -262144 -1 -1
0 1;
#X obj -291 142 tgl 15 0 empty empty empty 17 7 0 10 -262144 -1 -1
0 1;
#X obj -259 142 tgl 15 0 empty empty empty 17 7 0 10 -262144 -1 -1
0 1;
#X obj -219 142 tgl 15 0 empty empty empty 17 7 0 10 -262144 -1 -1
0 1;
#X obj -172 142 tgl 15 0 empty empty empty 17 7 0 10 -262144 -1 -1
0 1;
#X obj -127 142 tgl 15 0 empty empty empty 17 7 0 10 -262144 -1 -1
0 1;
#X obj -559 -326 tgl 15 0 empty empty empty 17 7 0 10 -262144 -1 -1
0 1;
#X floatatom -523 -60 5 1 16 0 - - -;
#X obj -516 -241 bng 15 250 50 0 empty empty empty 17 7 0 10 -262144
-1 -1;
#X obj -420 -100 float;
#X obj -523 -113 +;
#X msg -528 -187 1;
#X obj -492 -399 pow -1;
#X obj -492 -364 * 15000;
#X obj -492 -329 * 1;
#X floatatom -397 -276 5 0 0 0 - - -;
#X obj -492 -468 loadbang;
#X obj -415 -188 + 100;
#X obj -415 -153 select 101;
#X msg -360 -131 0;
#X obj -415 -223 <= 15;
#X obj -492 -501 bng 15 250 50 0 empty empty empty 17 7 0 10 -262144
-1 -1;
#X obj -650 82 == 1;
#X obj -621 82 == 2;
#X obj -591 82 == 3;
#X obj -560 82 == 4;
#X obj -530 82 == 5;
#X obj -500 82 == 6;
#X obj -467 82 == 7;
#X obj -432 82 == 8;
#X obj -396 82 == 9;
#X obj -363 82 == 10;
#X obj -325 82 == 11;
#X obj -293 82 == 12;
#X obj -257 82 == 13;
#X obj -217 82 == 14;
#X obj -172 83 == 15;
#X obj -125 82 == 16;
#X text -419 -427 BPM;
#X text -351 -277 MS/BEAT;
#N canvas 13 156 637 485 bpm 0;
#X obj 239 265 metro;
#X obj 196 214 tgl 15 0 empty empty empty 17 7 0 10 -262144 -1 -1 0
1;
#X obj 263 142 pow -1;
#X obj 263 177 * 15000;
#X obj 263 212 * 1;
#X floatatom 358 265 5 0 0 0 - - -;
#X text 336 114 BPM;
#X text 404 264 MS/BEAT;
#X obj 264 104 r bpmslide;
#X obj 195 51 inlet;
#X obj 239 356 outlet;
#X connect 0 0 10 0;
#X connect 1 0 0 0;
#X connect 2 0 3 0;
#X connect 3 0 4 0;
#X connect 4 0 5 0;
#X connect 4 0 0 1;
#X connect 8 0 2 0;
#X connect 9 0 1 0;
#X restore 1112 -251 pd bpm;
#X obj 1102 -317 hsl 128 15 60 187 0 0 bpmslide bpmslide empty -2 -8
0 10 -262144 -1 -1 0 1;
#X text 1258 -314 Set BPM;
#X obj 1117 -338 nbx 5 14 -1e+037 1e+037 0 0 bpmind bpmind empty 0
-8 0 10 -262144 -1 -1 0 256;
#X floatatom 1337 -301 5 0 0 0 - - -;
#X obj 1335 -333 r bpmslide;
#X obj 1337 -273 s bpmind;
#X obj 1109 -287 bng 15 250 50 0 empty empty empty 17 7 0 10 -262144
-1 -1;
#X floatatom 1004 289 5 0 0 0 - - -;
#X floatatom 1037 289 5 0 0 0 - - -;
#X floatatom 1069 289 5 0 0 0 - - -;
#X floatatom 1105 290 5 0 0 0 - - -;
#X floatatom 1139 292 5 0 0 0 - - -;
#X floatatom 1172 292 5 0 0 0 - - -;
#X floatatom 1204 292 5 0 0 0 - - -;
#X floatatom 1240 293 5 0 0 0 - - -;
#X floatatom 1274 292 5 0 0 0 - - -;
#X floatatom 1307 292 5 0 0 0 - - -;
#X floatatom 1339 292 5 0 0 0 - - -;
#X floatatom 1375 293 5 0 0 0 - - -;
#X floatatom 1409 295 5 0 0 0 - - -;
#X floatatom 1442 295 5 0 0 0 - - -;
#X floatatom 1474 295 5 0 0 0 - - -;
#X floatatom 1510 296 5 0 0 0 - - -;
#N canvas 118 50 872 531 adsr2 0;
#X obj -156 27 vsl 40 128 10 9999 1 0 empty empty A 16 140 0 18 -262144
-1 -1 0 1;
#X obj -107 27 vsl 40 128 10 9999 1 0 empty empty D 16 140 0 18 -262144
-1 -1 4600 1;
#X obj -58 26 vsl 40 128 0 1 0 0 empty empty S 16 140 0 18 -262144
-1 -1 1100 1;
#X obj -6 25 vsl 40 128 10 9999 1 0 empty empty R 16 140 0 18 -262144
-1 -1 1100 1;
#X obj -224 -143 inlet;
#X obj -152 187 nbx 4 14 -1e+037 1e+037 0 0 empty empty empty 0 -8
0 10 -262144 -1 -1 10 256;
#X obj -105 188 nbx 4 14 -1e+037 1e+037 0 0 empty empty empty 0 -8
0 10 -262144 -1 -1 122.067 256;
#X obj -52 189 nbx 4 14 -1e+037 1e+037 0 0 empty empty empty 0 -8 0
10 -262144 -1 -1 8.66142 256;
#X obj 1 189 nbx 4 14 -1e+037 1e+037 0 0 empty empty empty 0 -8 0 10
-262144 -1 -1 18.1903 256;
#X text -142 210 ms;
#X text -97 211 ms;
#X text 12 209 ms;
#X obj -158 241 nbx 5 14 -1e+037 1e+037 0 0 empty empty empty 0 -8
0 10 -262144 -1 -1 0 256;
#X text -159 256 EnvValue;
#X text -45 211 %;
#X msg -224 -103 bang;
#X obj -224 -68 alternate;
#X obj 131 98 * 100;
#X obj -299 362 pack f f f;
#X obj -125 484 vline~;
#X obj -323 317 float;
#X msg -69 409 0 \$1 0;
#X obj -57 360 float;
#X text -206 390 ADS;
#X text -49 392 R;
#X obj -120 531 outlet~;
#X text -73 259 comment;
#N canvas 0 0 450 300 (subpatch) 0;
#X array \$1-env 50 float 3;
#A 0 0 0 0 0 0 0 0 0 0 0 0 0 0 0 0 0 0 0 0 0 0 0 0 0 0 0 0 0 0 0 0
0 0 0 0 0 0 0 0 0 0 0 0 0 0 0 0 0 0 0;
#X coords 0 1 50 0 30 28 2 0 0;
#X restore -38 236 graph;
#X obj -150 329 unsig~ 10;
#X obj 31 469 tabwrite~ \$1-env;
#X msg 43 423 bang;
#X msg -271 406 0 1 0 \, 1 \$1 1 \, \$3 \$2 \$1;
#X connect 0 0 5 0;
#X connect 0 0 20 1;
#X connect 1 0 6 0;
#X connect 2 0 17 0;
#X connect 2 0 18 2;
#X connect 3 0 8 0;
#X connect 4 0 15 0;
#X connect 6 0 18 1;
#X connect 8 0 22 1;
#X connect 15 0 16 0;
#X connect 16 0 0 0;
#X connect 16 0 1 0;
#X connect 16 0 2 0;
#X connect 16 0 3 0;
#X connect 16 0 20 0;
#X connect 16 1 22 0;
#X connect 17 0 7 0;
#X connect 18 0 31 0;
#X connect 19 0 25 0;
#X connect 19 0 28 0;
#X connect 19 0 29 0;
#X connect 20 0 18 0;
#X connect 21 0 19 0;
#X connect 22 0 21 0;
#X connect 28 0 12 0;
#X connect 28 0 30 0;
#X connect 30 0 29 0;
#X connect 31 0 19 0;
#X coords 0 -1 1 1 240 280 1 -180 0;
#X restore 391 539 pd adsr2;
#X obj 279 524 notein;
#X obj 157 614 mtof;
#X obj 92 718 phasor~;
#X obj 147 971 *~;
#X obj 195 681 osc~;
#X obj 594 1033 *~;
#X obj 594 1054 +~ 27;
#X obj 654 1021 *~;
#X obj 654 1042 *~ 9;
#X obj 576 1076 *~;
#X obj 590 1119 /~;
#X obj 637 1095 +~ 27;
#X obj 136 842 *~ 0.2;
#X obj 384 1038 *~ 100;
#X obj 147 886 vcf~;
#X floatatom 442 962 5 0 0 0 - - -;
#X obj -42 901 hsl 128 15 1.2 120 1 0 empty empty empty -2 -8 0 10
-262144 -1 -1 5600 1;
#N canvas 0 231 1276 716 steqsequencer 0;
#X floatatom 3 -678 5 1 16 0 - - -;
#X obj -135 -536 == 1;
#X obj -101 -535 == 2;
#X obj -71 -534 == 3;
#X obj -39 -536 == 4;
#X obj -11 -537 == 5;
#X obj 20 -534 == 6;
#X obj 53 -534 == 7;
#X obj 88 -534 == 8;
#X obj 124 -534 == 9;
#X obj 157 -534 == 10;
#X obj 195 -534 == 11;
#X obj 227 -534 == 12;
#X obj 263 -534 == 13;
#X obj 303 -534 == 14;
#X obj 348 -534 == 15;
#X obj 395 -534 == 16;
#X obj 3 -883 inlet;
#X obj -164 448 outlet;
#X obj -118 447 outlet;
#X obj -75 445 outlet;
#X obj -32 445 outlet;
#X obj 14 442 outlet;
#X obj 60 441 outlet;
#X obj 103 439 outlet;
#X obj 146 439 outlet;
#X obj 194 442 outlet;
#X obj 240 441 outlet;
#X obj 283 439 outlet;
#X obj 326 439 outlet;
#X obj 373 436 outlet;
#X obj 419 435 outlet;
#X obj 462 433 outlet;
#X obj 505 433 outlet;
#X obj 0 27 hradio 20 1 0 16 empty ss_radio empty 0 -8 0 10 -262144
-33289 -1 0;
#X obj -134 -630 s ss_radio;
#X obj -133 -662 - 1;
#X obj -360 -441 select 1;
#X obj -900 -265 bang;
#X obj -299 -442 select 1;
#X obj -839 -266 bang;
#X obj -234 -443 select 1;
#X obj -774 -267 bang;
#X obj -173 -444 select 1;
#X obj -713 -268 bang;
#X obj -112 -443 select 1;
#X obj -652 -267 bang;
#X obj -49 -444 select 1;
#X obj -591 -268 bang;
#X obj 14 -445 select 1;
#X obj -526 -269 bang;
#X obj 75 -446 select 1;
#X obj -465 -270 bang;
#X obj 134 -447 select 1;
#X obj -406 -271 bang;
#X obj 195 -448 select 1;
#X obj -345 -272 bang;
#X obj 260 -449 select 1;
#X obj -280 -273 bang;
#X obj 321 -450 select 1;
#X obj -219 -274 bang;
#X obj 382 -449 select 1;
#X obj -158 -273 bang;
#X obj 449 -453 select 1;
#X obj -97 -274 bang;
#X obj 508 -451 select 1;
#X obj -32 -275 bang;
#X obj 569 -452 select 1;
#X obj 29 -276 bang;
#X obj 0 57 vsl 20 200 0 127 0 0 empty empty empty 0 -9 0 10 -262144
-1 -1 0 0;
#X obj 20 57 vsl 20 200 0 127 0 0 empty empty empty 0 -9 0 10 -262144
-1 -1 0 0;
#X obj 41 57 vsl 20 200 0 127 0 0 empty empty empty 0 -9 0 10 -262144
-1 -1 0 0;
#X obj 60 57 vsl 20 200 0 127 0 0 empty empty empty 0 -9 0 10 -262144
-1 -1 0 0;
#X obj 80 57 vsl 20 200 0 127 0 0 empty empty empty 0 -9 0 10 -262144
-1 -1 0 0;
#X obj 100 57 vsl 20 200 0 127 0 0 empty empty empty 0 -9 0 10 -262144
-1 -1 0 0;
#X obj 120 57 vsl 20 200 0 127 0 0 empty empty empty 0 -9 0 10 -262144
-1 -1 0 0;
#X obj 140 57 vsl 20 200 0 127 0 0 empty empty empty 0 -9 0 10 -262144
-1 -1 0 0;
#X obj 160 58 vsl 20 200 0 127 0 0 empty empty empty 0 -9 0 10 -262144
-1 -1 0 0;
#X obj 180 58 vsl 20 200 0 127 0 0 empty empty empty 0 -9 0 10 -262144
-1 -1 0 0;
#X obj 200 58 vsl 20 200 0 127 0 0 empty empty empty 0 -9 0 10 -262144
-1 -1 0 0;
#X obj 220 58 vsl 20 200 0 127 0 0 empty empty empty 0 -9 0 10 -262144
-1 -1 0 0;
#X obj 240 58 vsl 20 200 0 127 0 0 empty empty empty 0 -9 0 10 -262144
-1 -1 0 0;
#X obj 260 58 vsl 20 200 0 127 0 0 empty empty empty 0 -9 0 10 -262144
-1 -1 0 0;
#X obj 280 58 vsl 20 200 0 127 0 0 empty empty empty 0 -9 0 10 -262144
-1 -1 0 0;
#X obj 300 58 vsl 20 200 0 127 0 0 empty empty empty 0 -9 0 10 -262144
-1 -1 0 0;
#X obj -662 377 float;
#X obj -624 376 float;
#X obj -584 375 float;
#X obj -539 375 float;
#X obj -489 374 float;
#X obj -444 371 float;
#X obj -390 369 float;
#X obj -348 364 float;
#X obj -299 363 float;
#X obj -256 366 float;
#X obj -213 367 float;
#X obj -167 370 float;
#X obj -127 374 float;
#X obj -82 374 float;
#X obj -40 372 float;
#X obj 6 369 float;
#X connect 0 0 1 0;
#X connect 0 0 2 0;
#X connect 0 0 3 0;
#X connect 0 0 4 0;
#X connect 0 0 5 0;
#X connect 0 0 6 0;
#X connect 0 0 7 0;
#X connect 0 0 8 0;
#X connect 0 0 9 0;
#X connect 0 0 10 0;
#X connect 0 0 11 0;
#X connect 0 0 12 0;
#X connect 0 0 13 0;
#X connect 0 0 14 0;
#X connect 0 0 15 0;
#X connect 0 0 16 0;
#X connect 0 0 36 0;
#X connect 1 0 37 0;
#X connect 2 0 39 0;
#X connect 3 0 41 0;
#X connect 4 0 43 0;
#X connect 5 0 45 0;
#X connect 6 0 47 0;
#X connect 7 0 49 0;
#X connect 8 0 51 0;
#X connect 9 0 53 0;
#X connect 10 0 55 0;
#X connect 11 0 57 0;
#X connect 12 0 59 0;
#X connect 13 0 61 0;
#X connect 14 0 63 0;
#X connect 15 0 65 0;
#X connect 16 0 67 0;
#X connect 17 0 0 0;
#X connect 36 0 35 0;
#X connect 37 0 38 0;
#X connect 38 0 69 0;
#X connect 38 0 85 0;
#X connect 39 0 40 0;
#X connect 40 0 70 0;
#X connect 40 0 86 0;
#X connect 41 0 42 0;
#X connect 42 0 71 0;
#X connect 42 0 87 0;
#X connect 43 0 44 0;
#X connect 44 0 72 0;
#X connect 44 0 88 0;
#X connect 45 0 46 0;
#X connect 46 0 73 0;
#X connect 46 0 89 0;
#X connect 47 0 48 0;
#X connect 48 0 74 0;
#X connect 48 0 90 0;
#X connect 49 0 50 0;
#X connect 50 0 75 0;
#X connect 50 0 91 0;
#X connect 51 0 52 0;
#X connect 52 0 76 0;
#X connect 52 0 92 0;
#X connect 53 0 54 0;
#X connect 54 0 77 0;
#X connect 54 0 93 0;
#X connect 55 0 56 0;
#X connect 56 0 78 0;
#X connect 56 0 94 0;
#X connect 57 0 58 0;
#X connect 58 0 79 0;
#X connect 58 0 95 0;
#X connect 59 0 60 0;
#X connect 60 0 80 0;
#X connect 60 0 96 0;
#X connect 61 0 62 0;
#X connect 62 0 81 0;
#X connect 62 0 97 0;
#X connect 63 0 64 0;
#X connect 64 0 82 0;
#X connect 64 0 98 0;
#X connect 65 0 66 0;
#X connect 66 0 83 0;
#X connect 66 0 99 0;
#X connect 67 0 68 0;
#X connect 68 0 84 0;
#X connect 68 0 100 0;
#X connect 69 0 85 1;
#X connect 70 0 86 1;
#X connect 71 0 87 1;
#X connect 72 0 88 1;
#X connect 73 0 89 1;
#X connect 74 0 90 1;
#X connect 75 0 91 1;
#X connect 76 0 92 1;
#X connect 77 0 93 1;
#X connect 78 0 94 1;
#X connect 79 0 95 1;
#X connect 80 0 96 1;
#X connect 81 0 97 1;
#X connect 82 0 98 1;
#X connect 83 0 99 1;
#X connect 84 0 100 1;
#X connect 85 0 18 0;
#X connect 86 0 19 0;
#X connect 87 0 20 0;
#X connect 88 0 21 0;
#X connect 89 0 22 0;
#X connect 90 0 23 0;
#X connect 91 0 24 0;
#X connect 92 0 25 0;
#X connect 93 0 26 0;
#X connect 94 0 27 0;
#X connect 95 0 28 0;
#X connect 96 0 29 0;
#X connect 97 0 30 0;
#X connect 98 0 31 0;
#X connect 99 0 32 0;
#X connect 100 0 33 0;
#X coords 0 -1 1 1 320 280 1 0 0;
#X restore 1069 -45 pd steqsequencer;
#N canvas 294 60 450 300 StepSeq 0;
#X obj 578 92 inlet;
#X obj 589 252 metro;
#X obj 107 126 hradio 18 1 0 16 empty empty empty 0 -8 0 10 -262144
-1 -1 0;
#X obj 112 163 hsl 128 15 80 207 0 0 empty empty empty -2 -8 0 10 -262144
-1 -1 0 1;
#X text 109 146 BPM;
#X obj 261 163 nbx 5 14 -1e+037 1e+037 0 0 empty empty empty 0 -8 0
10 -262144 -1 -1 80 256;
#X obj 18 148 loadbang;
#X connect 3 0 5 0;
#X connect 6 0 3 0;
#X coords 0 -1 1 1 300 150 1 100 100;
#X restore 942 869 pd StepSeq;
#X floatatom 281 694 5 0 0 0 - - -;
#N canvas 327 436 872 531 adsr2 0;
#X obj -156 27 vsl 40 128 10 9999 1 0 empty empty A 16 140 0 18 -262144
-1 -1 0 1;
#X obj -107 27 vsl 40 128 10 9999 1 0 empty empty D 16 140 0 18 -262144
-1 -1 1000 1;
#X obj -58 26 vsl 40 128 0 1 0 0 empty empty S 16 140 0 18 -262144
-1 -1 2500 1;
#X obj -6 25 vsl 40 128 10 9999 1 0 empty empty R 16 140 0 18 -262144
-1 -1 800 1;
#X obj -224 -143 inlet;
#X obj -152 187 nbx 4 14 -1e+037 1e+037 0 0 empty empty empty 0 -8
0 10 -262144 -1 -1 10 256;
#X obj -105 188 nbx 4 14 -1e+037 1e+037 0 0 empty empty empty 0 -8
0 10 -262144 -1 -1 17.2273 256;
#X obj -52 189 nbx 4 14 -1e+037 1e+037 0 0 empty empty empty 0 -8 0
10 -262144 -1 -1 19.685 256;
#X obj 1 189 nbx 4 14 -1e+037 1e+037 0 0 empty empty empty 0 -8 0 10
-262144 -1 -1 15.4516 256;
#X text -142 210 ms;
#X text -97 211 ms;
#X text 12 209 ms;
#X obj -158 241 nbx 5 14 -1e+037 1e+037 0 0 empty empty empty 0 -8
0 10 -262144 -1 -1 0 256;
#X text -159 256 EnvValue;
#X text -45 211 %;
#X msg -224 -103 bang;
#X obj -224 -68 alternate;
#X obj 131 98 * 100;
#X obj -299 362 pack f f f;
#X obj -125 484 vline~;
#X obj -323 317 float;
#X msg -69 409 0 \$1 0;
#X obj -57 360 float;
#X text -206 390 ADS;
#X text -49 392 R;
#X obj -120 531 outlet~;
#X text -73 259 comment;
#N canvas 0 0 450 300 (subpatch) 0;
#X array \$1-env2 50 float 3;
#A 0 0 0 0 0 0 0 0 0 0 0 0 0 0 0 0 0 0 0 0 0 0 0 0 0 0 0 0 0 0 0 0
0 0 0 0 0 0 0 0 0 0 0 0 0 0 0 0 0 0 0;
#X coords 0 1 50 0 30 28 2 0 0;
#X restore -38 236 graph;
#X obj -150 329 unsig~ 10;
#X msg 43 423 bang;
#X msg -271 406 0 1 0 \, 1 \$1 1 \, \$3 \$2 \$1;
#X obj 31 469 tabwrite~ \$1-env2;
#X connect 0 0 5 0;
#X connect 0 0 20 1;
#X connect 1 0 6 0;
#X connect 2 0 17 0;
#X connect 2 0 18 2;
#X connect 3 0 8 0;
#X connect 4 0 15 0;
#X connect 6 0 18 1;
#X connect 8 0 22 1;
#X connect 15 0 16 0;
#X connect 16 0 0 0;
#X connect 16 0 1 0;
#X connect 16 0 2 0;
#X connect 16 0 3 0;
#X connect 16 0 20 0;
#X connect 16 1 22 0;
#X connect 17 0 7 0;
#X connect 18 0 30 0;
#X connect 19 0 25 0;
#X connect 19 0 28 0;
#X connect 19 0 31 0;
#X connect 20 0 18 0;
#X connect 21 0 19 0;
#X connect 22 0 21 0;
#X connect 28 0 12 0;
#X connect 28 0 29 0;
#X connect 29 0 31 0;
#X connect 30 0 19 0;
#X coords 0 -1 1 1 240 280 1 -180 0;
#X restore -140 406 pd adsr2;
#X obj -93 862 *~;
#X obj 269 947 *~;
#X obj 556 951 clip~ -3 3;
#X floatatom 257 1153 5 0 0 0 - - -;
#X obj 319 1105 float;
#X obj 265 1105 max;
#X obj 248 1060 unsig~ 1;
#X obj 166 1021 *~ 0.3;
#X obj 249 443 makenote;
#X msg 340 338 bang;
#X obj 115 929 vcf~;
#X obj 1031 714 unsig~ 1;
#X floatatom 1045 766 5 0 0 0 - - -;
#X obj 1058 531 bng 15 250 50 0 empty empty empty 17 7 0 10 -262144
-1 -1;
#X msg 1006 610 1000;
#X msg 1050 609 2000;
#X msg 1092 604 0.5;
#X msg 1132 597 140;
#X obj 969 736 env~;
#X floatatom 980 783 5 0 0 0 - - -;
#X obj 941 644 bng 15 250 50 0 empty empty empty 17 7 0 10 -262144
-1 -1;
#X obj 101 763 -~ 0.5;
#X obj 110 799 *~ 4;
#X obj 135 667 *~;
#X obj 112 690 *~ 5;
#X obj 236 604 random 1;
#X obj 229 628 + 1;
#X obj 187 652 / 1.618;
#X obj 250 753 *~ 300;
#X obj 347 582 vsl 15 128 1 100000 1 0 empty empty empty 0 -9 0 10
-262144 -1 -1 7000 1;
#X obj 282 52 masterclock;
#X obj 1004 665 adsr;
#X obj 652 55 keyboard;
#X obj -79 1003 lop~;
#X floatatom 502 -32 5 0 0 0 - - -;
#X floatatom 439 -180 5 0 0 0 - - -;
#X obj 453 -99 stepseq_g;
#X msg 293 395 19 100 50;
#X floatatom 418 329 5 0 0 0 - - -;
#X obj 297 293 select 0;
#X obj 29 178 saw~;
#X obj 65 258 *~;
#X obj 143 326 adsr;
#X msg 156 278 10;
#X msg 214 281 0.5;
#X obj 157 244 bng 15 250 50 0 empty empty empty 17 7 0 10 -262144
-1 -1;
#X obj 127 192 select 0;
#X obj 4 292 *~;
#X obj 31 34 adsr;
#X obj 216 232 % 4;
#X msg 16 -86 6;
#X msg 73 -80 0.2;
#X msg 190 280 200;
#X msg 240 283 50;
#X obj 234 807 +~ 20;
#X obj 205 888 +~ 30;
#X obj 135 1110 dac~;
#X obj 616 344 ch;
#X obj 525 411 tri~;
#X obj 498 337 euclid;
#X obj 657 317 euclid;
#X obj 437 247 euclid;
#X obj 2 -30 pack f f f f f;
#X msg 262 284 50;
#X obj 129 307 pack f f f f f;
#X obj 30 348 dac~;
#X obj 23 127 *~;
#X msg 44 -86 10;
#X msg 128 -84 5;
#X msg 96 -79 10;
#X obj 16 86 *~ 5;
#X msg 92 226 0.5;
#X connect 1 0 20 0;
#X connect 2 0 24 0;
#X connect 18 0 1 0;
#X connect 19 0 21 0;
#X connect 19 0 32 0;
#X connect 19 0 34 0;
#X connect 19 0 35 0;
#X connect 19 0 36 0;
#X connect 19 0 37 0;
#X connect 19 0 38 0;
#X connect 19 0 39 0;
#X connect 19 0 40 0;
#X connect 19 0 41 0;
#X connect 19 0 42 0;
#X connect 19 0 43 0;
#X connect 19 0 44 0;
#X connect 19 0 45 0;
#X connect 19 0 46 0;
#X connect 19 0 47 0;
#X connect 19 0 48 0;
#X connect 19 0 49 0;
#X connect 20 0 23 0;
#X connect 21 0 22 1;
#X connect 22 0 19 0;
#X connect 23 0 22 0;
#X connect 24 0 25 0;
#X connect 25 0 26 0;
#X connect 26 0 27 0;
#X connect 26 0 1 1;
#X connect 28 0 2 0;
#X connect 29 0 30 0;
#X connect 30 0 21 0;
#X connect 30 1 31 0;
#X connect 31 0 21 0;
#X connect 32 0 29 0;
#X connect 33 0 28 0;
#X connect 34 0 0 0;
#X connect 35 0 3 0;
#X connect 36 0 4 0;
#X connect 37 0 5 0;
#X connect 38 0 6 0;
#X connect 39 0 7 0;
#X connect 40 0 8 0;
#X connect 41 0 9 0;
#X connect 42 0 10 0;
#X connect 43 0 11 0;
#X connect 44 0 12 0;
#X connect 45 0 13 0;
#X connect 46 0 14 0;
#X connect 47 0 15 0;
#X connect 48 0 16 0;
#X connect 49 0 17 0;
#X connect 56 0 58 0;
#X connect 57 0 56 0;
#X connect 59 0 52 0;
#X connect 76 0 99 0;
#X connect 76 0 99 1;
#X connect 77 0 78 0;
#X connect 77 1 76 0;
#X connect 77 1 97 0;
#X connect 78 0 121 1;
#X connect 78 0 125 0;
#X connect 78 0 79 0;
#X connect 78 0 164 1;
#X connect 79 0 119 0;
#X connect 80 0 105 0;
#X connect 82 0 83 0;
#X connect 83 0 86 1;
#X connect 84 0 85 0;
#X connect 85 0 88 0;
#X connect 86 0 87 0;
#X connect 87 0 80 0;
#X connect 88 0 87 1;
#X connect 89 0 91 0;
#X connect 89 0 108 0;
#X connect 90 0 100 0;
#X connect 91 0 90 0;
#X connect 92 0 90 1;
#X connect 93 0 91 2;
#X connect 93 0 108 2;
#X connect 94 0 60 0;
#X connect 94 1 61 0;
#X connect 94 2 62 0;
#X connect 94 3 63 0;
#X connect 94 4 64 0;
#X connect 94 5 65 0;
#X connect 94 6 66 0;
#X connect 94 7 67 0;
#X connect 94 8 68 0;
#X connect 94 9 69 0;
#X connect 94 10 70 0;
#X connect 94 11 71 0;
#X connect 94 12 72 0;
#X connect 94 13 73 0;
#X connect 94 14 74 0;
#X connect 94 15 75 0;
#X connect 96 0 126 1;
#X connect 97 0 98 0;
#X connect 97 0 98 1;
#X connect 98 0 126 0;
#X connect 99 0 80 1;
#X connect 100 0 86 0;
#X connect 100 0 82 0;
#X connect 100 0 82 1;
#X connect 100 0 84 0;
#X connect 100 0 84 1;
#X connect 102 0 103 1;
#X connect 102 0 101 0;
#X connect 103 0 102 1;
#X connect 103 0 102 0;
#X connect 104 0 103 0;
#X connect 105 0 104 0;
#X connect 105 0 154 0;
#X connect 105 0 154 1;
#X connect 106 1 76 0;
#X connect 106 1 97 0;
#X connect 107 0 135 0;
#X connect 107 0 123 0;
#X connect 108 0 90 0;
#X connect 109 0 110 0;
#X connect 111 0 112 0;
#X connect 111 0 113 0;
#X connect 111 0 114 0;
#X connect 111 0 115 0;
#X connect 111 0 118 0;
#X connect 116 0 117 0;
#X connect 118 0 129 0;
#X connect 119 0 120 0;
#X connect 120 0 89 0;
#X connect 121 0 122 0;
#X connect 123 0 124 0;
#X connect 124 0 125 1;
#X connect 125 0 81 0;
#X connect 126 0 152 0;
#X connect 127 0 96 0;
#X connect 128 0 130 0;
#X connect 128 0 133 0;
#X connect 128 0 147 0;
#X connect 128 0 148 0;
#X connect 128 0 165 0;
#X connect 128 0 149 0;
#X connect 128 1 159 0;
#X connect 128 1 157 0;
#X connect 128 1 158 0;
#X connect 129 0 109 0;
#X connect 129 0 116 0;
#X connect 130 0 78 0;
#X connect 133 0 134 0;
#X connect 134 0 132 0;
#X connect 135 0 106 0;
#X connect 137 0 107 0;
#X connect 138 0 139 0;
#X connect 139 0 145 0;
#X connect 140 0 145 1;
#X connect 141 0 162 0;
#X connect 142 0 162 2;
#X connect 143 0 141 0;
#X connect 143 0 150 0;
#X connect 143 0 142 0;
#X connect 143 0 151 0;
#X connect 143 0 161 0;
#X connect 144 0 143 0;
#X connect 145 0 163 0;
#X connect 145 0 163 1;
#X connect 146 0 168 0;
#X connect 147 0 144 0;
#X connect 148 0 160 0;
#X connect 149 0 160 2;
#X connect 150 0 162 1;
#X connect 151 0 162 3;
#X connect 152 0 91 1;
#X connect 152 0 153 0;
#X connect 153 0 108 1;
#X connect 157 0 156 0;
#X connect 158 0 155 0;
#X connect 159 0 107 0;
#X connect 160 0 146 0;
#X connect 161 0 162 4;
#X connect 162 0 140 0;
#X connect 164 0 138 0;
#X connect 165 0 160 1;
#X connect 166 0 160 4;
#X connect 167 0 160 3;
#X connect 168 0 164 0;
#X connect 169 0 139 1;
