#N canvas 372 173 805 606 10;
#X obj 177 -33 phasor~;
#X obj 248 202 *~;
#X obj 359 170 adsr;
#X msg 412 23 5;
#X msg 442 24 10;
#X obj 444 91 pack f f f f f;
#X msg 478 -90 bang;
#X obj 227 277 dac~;
#X msg 481 24 0.5;
#X msg 551 24 50;
#N canvas 0 0 450 300 (subpatch) 0;
#X array array1 100 float 3;
#A 0 0 0 0 0 0 0 0 0 0 0 0 0 0 0 0 0 0 0 0 0 0 0 0 0 0 0 0 0 0 0 0
0 0 0 0 0 0 0 0 0 0 0 0 0 0 0 0 0 0 0 0 0 0 0 0 0 0 0 0 0 0 0 0 0 0
0 0 0 0 0 0 0 0 0 0 0 0 0 0 0 0 0 0 0 0 0 0 0 0 0 0 0 0 0 0 0 0 0 0
0;
#X coords 0 1 99 -1 200 140 1;
#X restore 573 89 graph;
#X obj 116 227 tabwrite~ array1;
#X msg 74 28 bang;
#X obj 276 -41 phasor~;
#X obj 124 14 expr~ $v1 * 2 - 1;
#X obj 276 16 expr~ $v1 * 2 - 1;
#X obj 282 51 *~ -1;
#X obj 385 212 expr 1 - $f1;
#X obj 211 137 *~ 0.8;
#X obj 254 96 clip~ 0 1;
#X obj 136 88 clip~ 0 1;
#X obj 51 147 metro 100;
#X msg 273 -83 0;
#X obj 63 -163 pack f f f f f;
#X msg 96 -232 bang;
#X obj 152 -110 *~ 2000;
#X obj 109 -130 adsr;
#X msg 99 -194 0.01;
#X obj 62 -70 tanh~;
#X obj 233 165 *~ 50;
#X msg 168 -194 50;
#X msg 134 -192 500;
#X msg 65 -196 20;
#X msg 31 -195 15;
#X obj 255 -306 inlet;
#X obj 182 -78 +~ 120;
#X msg 516 25 20;
#X connect 0 0 14 0;
#X connect 1 0 7 0;
#X connect 1 0 7 1;
#X connect 1 0 11 0;
#X connect 2 0 1 1;
#X connect 3 0 5 0;
#X connect 4 0 5 1;
#X connect 5 0 2 0;
#X connect 6 0 3 0;
#X connect 6 0 4 0;
#X connect 6 0 8 0;
#X connect 6 0 36 0;
#X connect 6 0 9 0;
#X connect 8 0 5 2;
#X connect 9 0 5 4;
#X connect 12 0 21 0;
#X connect 13 0 15 0;
#X connect 14 0 20 0;
#X connect 15 0 16 0;
#X connect 16 0 19 0;
#X connect 18 0 29 0;
#X connect 19 0 18 0;
#X connect 20 0 18 0;
#X connect 21 0 11 0;
#X connect 22 0 0 1;
#X connect 22 0 13 1;
#X connect 23 0 26 0;
#X connect 24 0 33 0;
#X connect 24 0 32 0;
#X connect 24 0 27 0;
#X connect 24 0 31 0;
#X connect 24 0 30 0;
#X connect 25 0 35 0;
#X connect 26 0 25 0;
#X connect 27 0 23 2;
#X connect 28 0 1 0;
#X connect 29 0 28 0;
#X connect 30 0 23 4;
#X connect 31 0 23 3;
#X connect 32 0 23 1;
#X connect 33 0 23 0;
#X connect 34 0 6 0;
#X connect 34 0 24 0;
#X connect 35 0 0 0;
#X connect 35 0 13 0;
#X connect 36 0 5 3;
